<?xml version="1.0" encoding="UTF-8"?>
<svg id="Layer_2" data-name="Layer 2" xmlns="http://www.w3.org/2000/svg" viewBox="0 0 1277.84 560.62">
  <defs>
    <style>
      .cls-1 {
        fill: #fff;
      }

      .cls-2 {
        stroke-width: 2.47px;
      }

      .cls-2, .cls-3, .cls-4, .cls-5, .cls-6, .cls-7, .cls-8 {
        fill: none;
        stroke: #131313;
        stroke-miterlimit: 10;
      }

      .cls-9 {
        fill: #131313;
      }

      .cls-3 {
        stroke-width: 2.7px;
      }

      .cls-4 {
        stroke-width: 2.41px;
      }

      .cls-5, .cls-6 {
        stroke-width: 2.89px;
      }

      .cls-6 {
        stroke-linecap: round;
      }

      .cls-10 {
        opacity: .12;
      }

      .cls-11 {
        fill: #ffce00;
      }

      .cls-7 {
        stroke-width: 1.1px;
      }

      .cls-8 {
        stroke-width: 5.51px;
      }

      .cls-12 {
        fill: #ffd30f;
      }
    </style>
  </defs>
  <g id="Landing_Page" data-name="Landing Page">
    <g id="Graphic_Elements" data-name="Graphic Elements">
      <path class="cls-12" d="M.07,559.18s1275.38,0,1275.41,0c7.24-.03-4.42-86.65-5.37-94.71-7.72-65.48-30.37-131.02-71.76-186.97-43.82-59.21-105.13-97.56-182.02-120.68-33.5-10.07-67.62-19.93-96.4-38.22-40.36-25.65-65.89-64.86-107.88-88.7C772.83,7.64,724.19-1.84,677.4,.29c-170.79,7.78-290.19,127.07-400.36,224.26-58.1,51.25-124.01,95.57-181.95,146.96C37.17,422.87-1.31,485.07,.03,558.09c0,.36,.03,.72,.04,1.08Z"/>
      <ellipse class="cls-12" cx="944.83" cy="58.69" rx="32.24" ry="71.24" transform="translate(367.92 809.24) rotate(-56.01)"/>
      <ellipse class="cls-12" cx="306.3" cy="109.67" rx="129.78" ry="46.68" transform="translate(20.84 265.75) rotate(-48.37)"/>
      <g>
        <g>
          <g>
            <g>
              <path class="cls-11" d="M241.84,435.65c-41.27-18.76-6.7-206.51-6.7-206.51l77.94-1.29s12.94,97.8,22.35,102.9l-93.59,104.9Z"/>
              <path class="cls-11" d="M241.84,435.65c-41.27-18.76-6.7-206.51-6.7-206.51l77.94-1.29s12.94,97.8,22.35,102.9l-93.59,104.9Z"/>
              <path class="cls-1" d="M327.05,340.15c-16.43-14.42-22.66-82.18-22.66-82.18l-4.5-29.9,13.2-.22s12.94,97.8,22.35,102.9l-8.38,9.4Z"/>
              <path class="cls-9" d="M249.45,420.58c.68,1.16,1.64,2.27,2.87,3.32l-10.48,11.75c-41.27-18.76-6.7-206.51-6.7-206.51l11.46-.19c-3.93,59.55-9.39,170.72,2.85,191.63Z"/>
              <path class="cls-5" d="M241.84,435.65c-41.27-18.76-6.7-206.51-6.7-206.51l77.94-1.29s12.94,97.8,22.35,102.9"/>
              <path class="cls-11" d="M335,331.07c9.46,7.14,148.75,42.43,230.61,54.34l9.06,42.87c-138.64,43.3-299.35,23.48-347.43-7.78l107.76-89.44Z"/>
              <path class="cls-1" d="M567.77,395.67c-42.73-11.26-224.58-43.13-240.08-54.98-.69-.53-1.35-1.18-1.97-1.92l9.27-7.7c9.46,7.14,148.75,42.43,230.61,54.34l2.17,10.25Z"/>
              <path class="cls-9" d="M227.23,420.51l12.12-10.05c24.71,28.64,197.87,48.86,333.28,8.21l2.03,9.62c-138.64,43.3-299.35,23.48-347.43-7.78Z"/>
              <path class="cls-5" d="M335,331.07c9.46,7.14,148.75,42.43,230.61,54.34l9.06,42.87c-138.64,43.3-299.35,23.48-347.43-7.78"/>
            </g>
            <g>
              <path class="cls-11" d="M320.59,260.81s-73.61-5.78-94.34,14.22c-.39-60,16.52-99.59,44.19-100.6,28.1-1.03,46.64,31.88,50.15,86.38Z"/>
              <path class="cls-9" d="M226.25,275.04c-.24-36.49,5.93-65.4,17.02-82.71-1.01,1.95-8.65,17.38,.27,24.92,9.53,8.06,3.66,14.3-6.26,22.56-8.6,7.15,.54,4.27,6.57,26.12-7.28,2.19-13.48,5.14-17.59,9.1Z"/>
              <path class="cls-1" d="M278.56,175.15c23.53,5.07,38.87,36.61,42.03,85.67,0,0-6.48-.51-16.12-.7h0s-1.34-62.7-25.91-84.96Z"/>
              <path class="cls-5" d="M320.59,260.81s-73.61-5.78-94.34,14.22c-.39-60,16.52-99.59,44.19-100.6,28.1-1.03,46.64,31.88,50.15,86.38Z"/>
            </g>
          </g>
          <g>
            <g>
              <path class="cls-11" d="M982.38,435.65c41.27-18.76,6.7-206.51,6.7-206.51l-77.94-1.29s-12.94,97.8-22.35,102.9l93.59,104.9Z"/>
              <path class="cls-11" d="M982.38,435.65c41.27-18.76,6.7-206.51,6.7-206.51l-77.94-1.29s-12.94,97.8-22.35,102.9l93.59,104.9Z"/>
              <path class="cls-1" d="M897.17,340.15c16.43-14.42,22.66-82.18,22.66-82.18l4.5-29.9-13.2-.22s-12.94,97.8-22.35,102.9l8.38,9.4Z"/>
              <path class="cls-9" d="M974.77,420.58c-.68,1.16-1.64,2.27-2.87,3.32l10.48,11.75c41.27-18.76,6.7-206.51,6.7-206.51l-11.46-.19c3.93,59.55,9.39,170.72-2.85,191.63Z"/>
              <path class="cls-5" d="M982.38,435.65c41.27-18.76,6.7-206.51,6.7-206.51l-77.94-1.29s-12.94,97.8-22.35,102.9"/>
              <path class="cls-11" d="M889.23,331.07c-9.46,7.14-148.75,42.43-230.61,54.34l-9.06,42.87c138.64,43.3,299.35,23.48,347.43-7.78l-107.76-89.44Z"/>
              <path class="cls-1" d="M656.45,395.67c42.73-11.26,224.58-43.13,240.08-54.98,.69-.53,1.35-1.18,1.97-1.92l-9.27-7.7c-9.46,7.14-148.75,42.43-230.61,54.34l-2.17,10.25Z"/>
              <path class="cls-9" d="M996.99,420.51l-12.12-10.05c-24.71,28.64-197.87,48.86-333.28,8.21l-2.03,9.62c138.64,43.3,299.35,23.48,347.43-7.78Z"/>
              <path class="cls-5" d="M889.23,331.07c-9.46,7.14-148.75,42.43-230.61,54.34l-9.06,42.87c138.64,43.3,299.35,23.48,347.43-7.78"/>
            </g>
            <g>
              <path class="cls-11" d="M903.63,260.81s73.61-5.78,94.34,14.22c.39-60-16.52-99.59-44.19-100.6-28.1-1.03-46.64,31.88-50.15,86.38Z"/>
              <path class="cls-9" d="M997.97,275.04c.24-36.49-5.93-65.4-17.02-82.71,1.01,1.95,8.65,17.38-.27,24.92-9.53,8.06-3.66,14.3,6.26,22.56,8.6,7.15-.54,4.27-6.57,26.12,7.28,2.19,13.48,5.14,17.59,9.1Z"/>
              <path class="cls-1" d="M945.66,175.15c-23.53,5.07-38.87,36.61-42.03,85.67,0,0,6.48-.51,16.12-.7h0s1.34-62.7,25.91-84.96Z"/>
              <path class="cls-5" d="M903.63,260.81s73.61-5.78,94.34,14.22c.39-60-16.52-99.59-44.19-100.6-28.1-1.03-46.64,31.88-50.15,86.38Z"/>
            </g>
          </g>
          <g>
            <g>
              <polygon class="cls-9" points="620.77 366.6 610.89 364.53 639.83 226.46 686.39 210.53 689.66 220.08 648.53 234.16 620.77 366.6"/>
              <polygon class="cls-1" points="643.81 231.08 688.22 215.88 686.39 210.53 639.83 226.46 610.89 364.53 615.63 365.52 643.81 231.08"/>
              <polygon class="cls-11" points="613.53 365.08 615.63 365.52 643.81 231.08 688.22 215.88 687.69 214.32 641.84 230.01 613.53 365.08"/>
              <polygon class="cls-4" points="620.77 366.6 610.89 364.53 639.83 226.46 686.39 210.53 689.66 220.08 648.53 234.16 620.77 366.6"/>
              <g>
                <polygon class="cls-11" points="640.09 449.73 567.93 449.73 556.09 307.56 651.93 307.56 640.09 449.73"/>
                <polygon class="cls-1" points="556.09 307.56 567.93 449.73 578.96 449.73 582.19 307.56 556.09 307.56"/>
                <polygon class="cls-1" points="644.92 391.72 647.1 365.56 560.92 365.56 563.1 391.72 644.92 391.72"/>
                <polygon class="cls-9" points="619.99 307.56 623.94 449.73 640.09 449.73 651.93 307.56 619.99 307.56"/>
                <polygon class="cls-4" points="640.09 449.73 567.93 449.73 556.09 307.56 651.93 307.56 640.09 449.73"/>
              </g>
            </g>
            <g>
              <path class="cls-9" d="M751.84,409.11c-.19-.41-.42-.78-.69-1.11-.08-.1-.17-.19-.26-.28-.71-.86-2.38-3.39-.51-6.16,2.31-3.43,1.31-10.46,1.31-10.46,0,0,3.12-5.56-2.54-14.63,0,0-2.08-2.81-4.39-5.22-7.91-14.24-26.85-24.45-49.33-26.77v.2c-.98-.16-2-.32-3.05-.46-5.02-.4-9.7-.36-14.06,.04-24.71,1.9-45.55,13.31-52.89,29.24,.07,0,.15,0,.22,0-.99,1.52-1.44,2.98-1.44,2.98-1.72,1.26-2.76,3.56-2.82,6.24-1.44,5.31,.28,8.39,.28,8.39-.89,1.28-1.42,2.83-1.42,4.5,0,2.38,1.06,4.51,2.73,5.95,0,0,0,0,0,0,1.9,2.81,.15,5.37-.54,6.19-.09,.09-.17,.18-.25,.28-3.08,3.89,.5,11.87,3.21,15.03,5.42,6.32,15.15,6.89,22.92,6.98,24.16,.29,48.41,.73,72.59,.14,5.13-.13,10.43-.57,15.53-1.2,3.75-.46,7.7-1.58,10.73-3.94,.93-.73,1.77-1.58,2.47-2.53,2.12-2.89,3.96-9.57,2.2-13.4Zm-34.16,11.12c.5-.06,1-.12,1.5-.18l-.83,.49-.67-.31Z"/>
              <g>
                <path class="cls-11" d="M686.1,373.5h59.82c-7.09-15.41-26.82-26.59-50.48-29.03l.33,4.68c.06,.83-.57,1.55-1.4,1.61-.04,0-.07,0-.11,0-.79,0-1.45-.61-1.51-1.4l-.37-5.16c-2.21-.16-4.45-.24-6.71-.24-27.86,0-52.18,12.03-60.23,29.52,4.71-.13,18.6-.16,60.66,.01Zm30.56-15.09l5.79-2.19c.78-.3,1.65,.1,1.95,.88,.3,.78-.1,1.65-.88,1.95l-5.79,2.19c-.18,.07-.36,.1-.53,.1-.61,0-1.18-.37-1.41-.98-.3-.78,.1-1.65,.88-1.95Zm-14.14-6.3c.19-.81,1.01-1.32,1.82-1.12l5.84,1.39c.81,.19,1.31,1.01,1.12,1.82-.17,.69-.79,1.16-1.47,1.16-.12,0-.23-.01-.35-.04l-5.84-1.39c-.81-.19-1.31-1.01-1.12-1.82Zm-20.39,4.09h6.01c.84,.01,1.51,.69,1.51,1.52,0,.83-.68,1.51-1.51,1.51h-6.01c-.83-.01-1.51-.69-1.51-1.52,0-.83,.68-1.51,1.51-1.51h0Zm-7.17-7.06l4.56-2.97c.7-.45,1.63-.26,2.09,.44,.45,.7,.26,1.64-.44,2.09l-4.56,2.97c-.25,.17-.54,.24-.82,.24-.49,0-.98-.24-1.27-.69-.45-.7-.26-1.64,.44-2.09Zm-15.95,1.84c.44-.71,1.37-.94,2.08-.5l4.55,2.79c.71,.44,.94,1.37,.5,2.08-.29,.47-.78,.72-1.29,.72-.27,0-.54-.07-.79-.22l-4.55-2.79c-.71-.44-.94-1.37-.5-2.08Zm-13.57,7.84l4.19-4.12c.6-.58,1.55-.58,2.14,.02,.58,.6,.58,1.55-.02,2.14l-4.19,4.12c-.29,.29-.68,.43-1.06,.43s-.78-.15-1.08-.45c-.58-.6-.58-1.55,.02-2.14Z"/>
                <g>
                  <path class="cls-1" d="M699.7,345.01c-1.4-.21-2.83-.39-4.26-.54l.04,.5c2.61-.03,4.2,.04,4.23,.04Z"/>
                  <path class="cls-1" d="M652.2,358.74c1.82-2.37,4.22-4.34,6.97-5.97-.43-.48-.52-1.21-.16-1.79,.44-.71,1.37-.94,2.08-.5l1.12,.69c5.26-2.48,11.38-3.98,17.13-4.88l.18-.12c.44-.29,.97-.31,1.42-.12,4.29-.6,8.3-.88,11.51-1l-.06-.84c-2.21-.16-4.45-.24-6.71-.24-27.86,0-52.18,12.03-60.23,29.52,2.31-.06,6.83-.1,15.8-.11l21.64-1.4c-4.09,.2-21.08,.29-10.68-13.24Zm-5.71,2.68c-.39,0-.78-.15-1.08-.45-.58-.6-.58-1.55,.02-2.14l4.19-4.12c.6-.58,1.55-.58,2.14,.02,.58,.6,.58,1.55-.02,2.14l-4.19,4.12c-.29,.29-.68,.43-1.06,.43Z"/>
                  <path class="cls-1" d="M662.88,371.98c.54-.03,.86-.06,.86-.06l-.86,.06Z"/>
                </g>
                <path class="cls-11" d="M628.15,403.48h16.76l-7.59-11.69c-.63,.13-1.27,.27-1.91,.42-4.51,1.02-9.17,2.08-12.99-.53-.25-.17-.49-.38-.73-.58-.89,1.28-1.42,2.83-1.42,4.5,0,4.35,3.54,7.88,7.88,7.88Z"/>
                <path class="cls-11" d="M732.24,391.79c-.79-.2-1.58-.43-2.38-.66-3.16-.91-6.15-1.76-8.98-1.08-1.58,.38-3.04,1.23-4.58,2.13-.95,.56-1.94,1.13-2.98,1.61-2.54,1.16-5.37,1.67-8.17,1.56l-20.2,8.13h58.98c4.35,0,7.88-3.54,7.88-7.88,0-1.93-.7-3.69-1.85-5.07-2.43,2.27-5.9,2.51-8.33,2.49-3.16-.03-6.31-.45-9.37-1.23Z"/>
                <path class="cls-11" d="M696.15,392.62c-1.62-.86-3.15-1.68-4.78-1.93-3.58-.57-6.92,1.54-10.46,3.78-1.33,.84-2.7,1.7-4.09,2.43-3.53,1.83-7.48,2.74-11.44,2.74-4.7,0-9.39-1.28-13.39-3.81-.76-.48-1.48-1-2.19-1.5-1.61-1.14-3.13-2.22-4.83-2.77-1.35-.44-2.83-.48-4.41-.31l13.82,21.27,45.32-18.24c-.24-.09-.49-.16-.73-.26-.98-.41-1.92-.91-2.83-1.39Z"/>
                <path class="cls-1" d="M653.38,396.64c-.47-.25-.93-.52-1.39-.81-.76-.48-1.48-1-2.19-1.5-1.61-1.14-3.13-2.22-4.83-2.77-1.35-.44-2.83-.48-4.41-.31l13.82,21.27,7.41-2.98-8.41-12.9Z"/>
                <path class="cls-11" d="M624.12,389.18c2.73,1.86,6.57,1,10.62,.08,2.46-.56,4.98-1.13,7.42-1.13,1.27,0,2.53,.15,3.74,.55,2.15,.69,3.93,1.96,5.65,3.19,.7,.5,1.37,.97,2.06,1.41,6.46,4.09,15.03,4.46,21.82,.94,1.28-.67,2.54-1.46,3.87-2.3,3.85-2.44,7.83-4.95,12.54-4.21,2.13,.34,3.96,1.31,5.73,2.25,.88,.47,1.72,.92,2.58,1.28,3.75,1.58,8.2,1.51,11.9-.19,.91-.42,1.79-.93,2.72-1.47,1.67-.97,3.39-1.98,5.39-2.46,3.62-.87,7.13,.13,10.53,1.11,.77,.22,1.53,.44,2.3,.64,2.83,.72,5.74,1.11,8.66,1.14,3.06,.03,5.12-.53,6.36-1.77,1.46-1.47,2.26-4.15,1.82-6.11-.45-2-1.21-3.47-2.31-5.28-41.12-.23-117.32-.58-123.29-.37-1.73,1.28-2.78,3.61-2.82,6.32-.04,2.78,1,5.23,2.71,6.4Z"/>
                <path class="cls-1" d="M715.68,385.49c-10.72,8.76-15.97-1.12-28.19-.81-12.21,.32-21.36,11.46-28.33,5.12-6.97-6.33-5.6-6.8-21.66-4.99-9.45,1.06-13.74-2.04-15.68-4.77-.26,.84-.4,1.76-.42,2.74-.04,2.78,1,5.23,2.71,6.4,2.73,1.86,6.57,1,10.62,.08,2.46-.56,4.98-1.13,7.42-1.13,1.27,0,2.53,.15,3.74,.55,2.15,.69,3.93,1.96,5.65,3.19,.7,.5,1.37,.97,2.06,1.41,6.46,4.09,15.03,4.46,21.82,.94,1.28-.67,2.54-1.46,3.87-2.3,3.85-2.44,7.83-4.95,12.54-4.21,2.13,.34,3.96,1.31,5.73,2.25,.88,.47,1.72,.92,2.58,1.28,3.75,1.58,8.2,1.51,11.9-.19,.91-.42,1.79-.93,2.72-1.47,1.67-.97,3.39-1.98,5.39-2.46,3.62-.87,7.13,.13,10.53,1.11,.77,.22,1.53,.44,2.3,.64,1.27,.32,2.55,.58,3.84,.76-5.94-1.49-11.15-12.31-21.15-4.14Z"/>
                <polygon class="cls-11" points="736.36 406.5 695.03 406.5 718.18 417.13 736.36 406.5"/>
                <polygon class="cls-1" points="718.18 417.13 723.91 413.78 708.33 406.5 695.03 406.5 718.18 417.13"/>
                <path class="cls-11" d="M751.84,409.11c-.19-.41-.42-.78-.69-1.11-.61-.75-1.54-1.18-2.55-1.18h-6.79l-23.46,13.72-29.89-13.72h-11.81l-23.44,9.44-6.13-9.44h-22.29c-1.03,0-1.97,.44-2.58,1.21-3.08,3.89,.5,11.87,3.21,15.03,5.42,6.32,15.15,6.89,22.92,6.98,24.16,.29,48.41,.73,72.59,.14,5.13-.13,10.43-.57,15.53-1.2,3.75-.46,7.7-1.58,10.73-3.94,.93-.73,1.77-1.58,2.47-2.53,2.12-2.89,3.96-9.57,2.2-13.4Z"/>
                <path class="cls-1" d="M622.42,391.68c-.25-.17-.49-.38-.73-.58-.89,1.28-1.42,2.83-1.42,4.5,0,4.35,3.54,7.88,7.88,7.88h2.34c-5.88-6.22,1-10.47,1-10.47-3.21,.52-6.35,.52-9.07-1.33Z"/>
                <path class="cls-1" d="M628.84,406.81h-4.06c-1.03,0-1.97,.44-2.58,1.21-3.08,3.89,.5,11.87,3.21,15.03,4.38,5.1,11.57,6.46,18.26,6.84-12.01-5.58-16.57-16.34-14.84-23.08Z"/>
              </g>
              <g>
                <path class="cls-4" d="M686.1,373.5h59.82c-7.09-15.41-26.82-26.59-50.48-29.03l.33,4.68c.06,.83-.57,1.55-1.4,1.61-.04,0-.07,0-.11,0-.79,0-1.45-.61-1.51-1.4l-.37-5.16c-2.21-.16-4.45-.24-6.71-.24-27.86,0-52.18,12.03-60.23,29.52,4.71-.13,18.6-.16,60.66,.01Zm30.56-15.09l5.79-2.19c.78-.3,1.65,.1,1.95,.88,.3,.78-.1,1.65-.88,1.95l-5.79,2.19c-.18,.07-.36,.1-.53,.1-.61,0-1.18-.37-1.41-.98-.3-.78,.1-1.65,.88-1.95Zm-14.14-6.3c.19-.81,1.01-1.32,1.82-1.12l5.84,1.39c.81,.19,1.31,1.01,1.12,1.82-.17,.69-.79,1.16-1.47,1.16-.12,0-.23-.01-.35-.04l-5.84-1.39c-.81-.19-1.31-1.01-1.12-1.82Zm-20.39,4.09h6.01c.84,.01,1.51,.69,1.51,1.52,0,.83-.68,1.51-1.51,1.51h-6.01c-.83-.01-1.51-.69-1.51-1.52,0-.83,.68-1.51,1.51-1.51h0Zm-7.17-7.06l4.56-2.97c.7-.45,1.63-.26,2.09,.44,.45,.7,.26,1.64-.44,2.09l-4.56,2.97c-.25,.17-.54,.24-.82,.24-.49,0-.98-.24-1.27-.69-.45-.7-.26-1.64,.44-2.09Zm-15.95,1.84c.44-.71,1.37-.94,2.08-.5l4.55,2.79c.71,.44,.94,1.37,.5,2.08-.29,.47-.78,.72-1.29,.72-.27,0-.54-.07-.79-.22l-4.55-2.79c-.71-.44-.94-1.37-.5-2.08Zm-13.57,7.84l4.19-4.12c.6-.58,1.55-.58,2.14,.02,.58,.6,.58,1.55-.02,2.14l-4.19,4.12c-.29,.29-.68,.43-1.06,.43s-.78-.15-1.08-.45c-.58-.6-.58-1.55,.02-2.14Z"/>
                <path class="cls-4" d="M628.15,403.48h16.76l-7.59-11.69c-.63,.13-1.27,.27-1.91,.42-4.51,1.02-9.17,2.08-12.99-.53-.25-.17-.49-.38-.73-.58-.89,1.28-1.42,2.83-1.42,4.5,0,4.35,3.54,7.88,7.88,7.88Z"/>
                <path class="cls-4" d="M732.24,391.79c-.79-.2-1.58-.43-2.38-.66-3.16-.91-6.15-1.76-8.98-1.08-1.58,.38-3.04,1.23-4.58,2.13-.95,.56-1.94,1.13-2.98,1.61-2.54,1.16-5.37,1.67-8.17,1.56l-20.2,8.13h58.98c4.35,0,7.88-3.54,7.88-7.88,0-1.93-.7-3.69-1.85-5.07-2.43,2.27-5.9,2.51-8.33,2.49-3.16-.03-6.31-.45-9.37-1.23Z"/>
                <path class="cls-4" d="M696.15,392.62c-1.62-.86-3.15-1.68-4.78-1.93-3.58-.57-6.92,1.54-10.46,3.78-1.33,.84-2.7,1.7-4.09,2.43-3.53,1.83-7.48,2.74-11.44,2.74-4.7,0-9.39-1.28-13.39-3.81-.76-.48-1.48-1-2.19-1.5-1.61-1.14-3.13-2.22-4.83-2.77-1.35-.44-2.83-.48-4.41-.31l13.82,21.27,45.32-18.24c-.24-.09-.49-.16-.73-.26-.98-.41-1.92-.91-2.83-1.39Z"/>
                <path class="cls-4" d="M624.12,389.18c2.73,1.86,6.57,1,10.62,.08,2.46-.56,4.98-1.13,7.42-1.13,1.27,0,2.53,.15,3.74,.55,2.15,.69,3.93,1.96,5.65,3.19,.7,.5,1.37,.97,2.06,1.41,6.46,4.09,15.03,4.46,21.82,.94,1.28-.67,2.54-1.46,3.87-2.3,3.85-2.44,7.83-4.95,12.54-4.21,2.13,.34,3.96,1.31,5.73,2.25,.88,.47,1.72,.92,2.58,1.28,3.75,1.58,8.2,1.51,11.9-.19,.91-.42,1.79-.93,2.72-1.47,1.67-.97,3.39-1.98,5.39-2.46,3.62-.87,7.13,.13,10.53,1.11,.77,.22,1.53,.44,2.3,.64,2.83,.72,5.74,1.11,8.66,1.14,3.06,.03,5.12-.53,6.36-1.77,1.46-1.47,2.26-4.15,1.82-6.11-.45-2-1.21-3.47-2.31-5.28-41.12-.23-117.32-.58-123.29-.37-1.73,1.28-2.78,3.61-2.82,6.32-.04,2.78,1,5.23,2.71,6.4Z"/>
                <polygon class="cls-4" points="736.36 406.5 695.03 406.5 718.18 417.13 736.36 406.5"/>
                <path class="cls-4" d="M751.84,409.11c-.19-.41-.42-.78-.69-1.11-.61-.75-1.54-1.18-2.55-1.18h-6.79l-23.46,13.72-29.89-13.72h-11.81l-23.44,9.44-6.13-9.44h-22.29c-1.03,0-1.97,.44-2.58,1.21-3.08,3.89,.5,11.87,3.21,15.03,5.42,6.32,15.15,6.89,22.92,6.98,24.16,.29,48.41,.73,72.59,.14,5.13-.13,10.43-.57,15.53-1.2,3.75-.46,7.7-1.58,10.73-3.94,.93-.73,1.77-1.58,2.47-2.53,2.12-2.89,3.96-9.57,2.2-13.4Z"/>
              </g>
            </g>
            <g>
              <g>
                <path class="cls-11" d="M614.33,444.54c-3.78,9.67-11.22,17.73-22.5,21.52-18.2,6.12-41.31,.36-53.83-9.89-15.27-12.49-24.56-31.42-39.29-44.39-15.42-13.61-37.51-11.87-55.19-19.8l-.14-.05c-.65-.27-1.31-.59-1.96-.91,2.44-5.48,3.97-11.17,3.84-17.09-.07-2.68,.26-6.48,2.68-6.95,.78-.15,1.52,.17,2.2,.48,.76,.36,1.55,.72,2.31,1.07,17.07,7.8,34.16,14.22,53.47,14.69,24.19,.59,48.8-7.38,72.81-1.77,27.32,6.39,46.21,35.92,35.61,63.08Z"/>
                <path class="cls-1" d="M578.72,381.46c-24-5.62-48.62,2.36-72.81,1.77-19.31-.47-36.4-6.89-53.47-14.69-.77-.35-1.55-.7-2.31-1.07-.67-.31-1.42-.63-2.2-.48-2.05,.39-2.6,3.2-2.68,5.68,18.06,7.88,36.45,15.62,55.96,18.2,15.55,2.06,31.32,.77,47.01,.48,15.68-.29,31.76,.49,46.29,6.4,6.85,2.78,13.32,6.89,18.63,12.06-6.26-13.77-19-24.75-34.42-28.36Z"/>
                <path class="cls-9" d="M568.22,451.9c-21.44-22.03-64.05-55.37-91.04-57.61-15.76-1.3-26.96-5.73-33.55-9.18-.6,2-1.35,3.97-2.22,5.92,.65,.32,1.3,.64,1.96,.91l.14,.05c17.69,7.93,39.77,6.2,55.19,19.8,14.73,12.96,24.01,31.9,39.29,44.39,12.52,10.24,35.64,16.01,53.83,9.89,9.81-3.29,18.2-10.05,22.76-21.42,.62-1.58,1.19-3.24,1.65-4.98,.03-.12,.07-.23,.1-.36,.4-1.52,.74-3.02,.97-4.5,.09-.51,.17-1.02,.22-1.52,.08-.6,.15-1.2,.2-1.8,.06-.59,.1-1.17,.14-1.77,.02-.44,.05-.88,.06-1.33,0-.27,0-.54,0-.81-6.63,33.39-28.26,46.35-49.7,24.32Z"/>
                <path class="cls-2" d="M614.58,444.64c-4.55,11.37-12.95,18.13-22.76,21.42-18.2,6.12-41.31,.36-53.83-9.89-15.27-12.49-24.56-31.42-39.29-44.39-15.42-13.61-37.51-11.87-55.19-19.8l-.14-.05c-.65-.27-1.31-.59-1.96-.91,2.44-5.48,3.97-11.17,3.84-17.09-.07-2.68,.26-6.48,2.68-6.95,.78-.15,1.52,.17,2.2,.48,.76,.36,1.55,.72,2.31,1.07,17.07,7.8,34.16,14.22,53.47,14.69,18.52,.44,37.26-2.56,55.93-4.15,1.46-.13,2.93-.16,4.39-.12,.4,0,.79,0,1.2,.03,.48,.02,.95,.06,1.42,.09,.56,.04,1.1,.1,1.66,.15,.62,.08,1.26,.16,1.89,.24,1.96,.3,3.91,.71,5.87,1.24,1.9,.51,3.77,1.12,5.64,1.84,.71,.27,1.41,.56,2.12,.87l.17,.07c.71,.31,1.43,.64,2.13,.98,.51,.23,1.02,.5,1.51,.76,.52,.25,1.02,.54,1.54,.82,.17,.08,.35,.17,.5,.28,.62,.35,1.26,.72,1.87,1.1,.18,.1,.37,.21,.53,.35,.32,.2,.64,.39,.94,.6,.26,.16,.52,.33,.76,.51,.35,.22,.67,.46,1,.69,.68,.48,1.35,.99,2.01,1.49,.52,.4,1.04,.81,1.54,1.26,.05,.02,.1,.07,.15,.13,.58,.47,1.15,.96,1.69,1.46,.04,.03,.07,.06,.09,.09,.6,.55,1.19,1.12,1.78,1.71,1.14,1.16,2.25,2.38,3.28,3.64,.52,.61,1.01,1.23,1.48,1.88,.23,.3,.45,.61,.66,.92,0,0,.02,0,0,.02,.31,.41,.61,.85,.9,1.28,.36,.53,.69,1.08,1.02,1.62,.1,.16,.19,.31,.27,.47,.38,.65,.75,1.3,1.1,1.97,.44,.83,.85,1.68,1.22,2.52,.29,.62,.54,1.22,.78,1.83,.07,.19,.14,.38,.21,.57,.25,.66,.5,1.33,.7,2,.03,.07,.05,.11,.08,.17,.18,.61,.36,1.22,.52,1.84,.09,.32,.18,.66,.25,1,.09,.29,.16,.58,.21,.87,.55,2.56,.9,5.19,.95,7.92,.02,.46,.01,.91,.01,1.38,0,.27,0,.54,0,.81,0,.45-.03,.89-.06,1.33-.03,.6-.07,1.18-.14,1.77-.05,.59-.12,1.2-.2,1.8-.05,.5-.14,1.01-.22,1.52-.23,1.48-.56,2.98-.97,4.5-.03,.13-.07,.24-.1,.36-.47,1.73-1.03,3.39-1.65,4.98Z"/>
                <path class="cls-9" d="M446.49,390.61c.11-.12,.21-.24,.29-.36,3.71-5.35,4.72-13.03,4.21-19.17-.11-1.31-.31-2.64-.96-3.66-.65-1.03-1.85-1.67-3-1.23-1.6,.61-2.28,2.78-2.69,4.62-1.34,5.97-2.77,13.7-4.75,18.67-1.19,3.95,5.23,2.94,6.9,1.15Z"/>
                <path class="cls-1" d="M442.89,385.51c-1.06,.5-2.11,.8-3.05,.89-3.08,.28-6.15-.7-9.1-1.72-5.77-1.99-11.56-4.19-17.61-4.51-6.89-.37-13.94,1.37-20.81,.65-4.4-.46-8.3-5.4-9.33-10.59-.8-3.89,.02-7.91,3.43-10.28,.94-.67,2.03-1.1,2.89-1.89,1.27-1.15,1.92-2.91,2.56-4.56,.09-.24,.18-.47,.29-.7,.32-.8,.75-1.57,1.38-2.14,.11-.1,.22-.19,.34-.27v-.02c1.99-1.41,4.99-.63,7.13,.46,.56,.27,1.08,.58,1.49,.88,5.16,3.66,8.96,9.47,13.9,13.29,.68,.53,1.39,1.02,2.13,1.46,1.04,.62,2.13,1.12,3.3,1.52,2.88,.96,5.95,.98,8.92,1.58,2.69,.55,4.63,1.32,7.44,1.21,1.39-.06,3.09-.17,4.77-.07,.55,.03,1.11,.08,1.63,.17,2.5,.4,4.68,1.52,5.34,4.32,.99,4.19-3.09,8.48-7.03,10.31Z"/>
                <path class="cls-2" d="M442.89,385.51c-1.06,.5-2.11,.8-3.05,.89-3.08,.28-6.15-.7-9.1-1.72-5.77-1.99-11.56-4.19-17.61-4.51-6.89-.37-13.94,1.37-20.81,.65-4.4-.46-8.3-5.4-9.33-10.59-.8-3.89,.02-7.91,3.43-10.28,.94-.67,2.03-1.1,2.89-1.89,1.27-1.15,1.92-2.91,2.56-4.56,.09-.24,.18-.47,.29-.7,.32-.8,.75-1.57,1.38-2.14,.11-.1,.22-.19,.34-.27v-.02c1.99-1.41,4.99-.63,7.13,.46,.56,.27,1.08,.58,1.49,.88,5.16,3.66,8.96,9.47,13.9,13.29,.68,.53,1.39,1.02,2.13,1.46,1.04,.62,2.13,1.12,3.3,1.52,2.88,.96,5.95,.98,8.92,1.58,2.69,.55,4.63,1.32,7.44,1.21,1.39-.06,3.09-.17,4.77-.07,.55,.03,1.11,.08,1.63,.17,2.5,.4,4.68,1.52,5.34,4.32,.99,4.19-3.09,8.48-7.03,10.31Z"/>
                <path class="cls-9" d="M443.93,382.42c1.34-3.56,.9-7.55,1.38-11.33,.09-.7,.22-1.42,.65-1.99,.42-.57,1.21-.94,1.94-.71,.9,.28,1.3,1.28,1.51,2.15,1.3,5.18,1.01,10.63-.84,15.5-.7,1.84-2.76,5.74-5.67,4.28-3.15-1.58,.28-5.9,1.03-7.89Z"/>
              </g>
              <g>
                <path class="cls-1" d="M474.51,359.37c-.85-.08-1.62-.28-2.24-.57-2.04-.96-3.61-2.71-5.09-4.45-2.89-3.39-5.72-6.91-9.41-9.35-4.2-2.78-9.28-4.3-13.33-7.29-2.6-1.92-3.23-6.47-1.95-10.11,.94-2.75,2.94-4.97,5.96-5.2,.84-.07,1.68,.06,2.51-.12,1.23-.26,2.29-1.12,3.29-1.92,.14-.11,.29-.23,.44-.34,.5-.38,1.05-.71,1.66-.84,.11-.02,.21-.04,.31-.04h0c1.77-.16,3.37,1.44,4.31,2.92,.25,.38,.47,.76,.61,1.1,1.9,4.21,2.13,9.27,3.83,13.5,.23,.59,.5,1.16,.8,1.71,.43,.77,.93,1.49,1.51,2.17,1.46,1.67,3.38,2.82,5.03,4.29,1.49,1.34,2.42,2.55,4.23,3.51,.9,.48,2.01,1.04,3.02,1.72,.33,.22,.67,.46,.96,.71,1.42,1.17,2.38,2.69,1.76,4.69-.92,3-5.08,4.2-8.24,3.88Z"/>
                <path class="cls-2" d="M474.51,359.37c-.85-.08-1.62-.28-2.24-.57-2.04-.96-3.61-2.71-5.09-4.45-2.89-3.39-5.72-6.91-9.41-9.35-4.2-2.78-9.28-4.3-13.33-7.29-2.6-1.92-3.23-6.47-1.95-10.11,.94-2.75,2.94-4.97,5.96-5.2,.84-.07,1.68,.06,2.51-.12,1.23-.26,2.29-1.12,3.29-1.92,.14-.11,.29-.23,.44-.34,.5-.38,1.05-.71,1.66-.84,.11-.02,.21-.04,.31-.04h0c1.77-.16,3.37,1.44,4.31,2.92,.25,.38,.47,.76,.61,1.1,1.9,4.21,2.13,9.27,3.83,13.5,.23,.59,.5,1.16,.8,1.71,.43,.77,.93,1.49,1.51,2.17,1.46,1.67,3.38,2.82,5.03,4.29,1.49,1.34,2.42,2.55,4.23,3.51,.9,.48,2.01,1.04,3.02,1.72,.33,.22,.67,.46,.96,.71,1.42,1.17,2.38,2.69,1.76,4.69-.92,3-5.08,4.2-8.24,3.88Z"/>
                <path class="cls-11" d="M560.66,460.09c-17.96,13.3-44.93-.7-52.46-21.09-4.99-13.5-3.83-28.85-8.3-42.45-4.67-14.26-19.2-21.34-27.4-32.87l-.07-.09c-.31-.41-.6-.85-.89-1.3,3.57-2.55,6.63-5.56,8.73-9.33,.94-1.71,2.56-3.98,4.25-3.38,.55,.19,.9,.67,1.2,1.11,.34,.51,.71,1.02,1.06,1.53,7.85,11.22,16.23,21.58,28.2,29.02,19.51,12.1,47.59,16.41,56.15,40.63,3.81,10.77,2.33,23.52-4.71,32.53-1.78,2.28-3.73,4.17-5.79,5.7Z"/>
                <path class="cls-1" d="M571.15,421.87c-8.56-24.22-36.64-28.53-56.15-40.63-11.98-7.44-20.35-17.8-28.2-29.02-.35-.5-.72-1.02-1.06-1.53-.31-.45-.66-.92-1.2-1.11-1.69-.6-3.31,1.67-4.25,3.38-.16,.29-.34,.56-.51,.84,4.56,5.85,14.67,18,26.25,26.9,15.8,12.14,89.39,44.89,52.46,80.56,.14,.02,.28,.02,.42,.03,.59-.37,1.18-.77,1.76-1.2,2.06-1.53,4.01-3.42,5.79-5.7,7.03-9.01,8.52-21.75,4.71-32.53Z"/>
                <path class="cls-9" d="M560.64,460.07c.98-.76,1.95-1.6,2.88-2.52,.06-.06,.13-.12,.2-.19,0,0,.02-.02,.02-.02-29.56,10.68-48.98-40.15-55.7-61.08-5.88-18.32-24.17-35.18-29.9-40.13-1.85,2.35-4.1,4.37-6.6,6.16,.29,.44,.58,.89,.89,1.3l.07,.09c8.19,11.53,22.73,18.61,27.4,32.87,4.47,13.6,3.31,28.95,8.3,42.45,4.09,11.08,16.5,23.25,30.21,26.13,7.39,1.56,15.17,.41,22.24-5.06Z"/>
                <path class="cls-2" d="M560.64,460.07c-7.07,5.47-14.85,6.61-22.24,5.06-13.71-2.88-26.12-15.05-30.21-26.13-4.99-13.5-3.83-28.85-8.3-42.45-4.67-14.26-19.2-21.34-27.4-32.87l-.07-.09c-.31-.41-.6-.85-.89-1.3,3.57-2.55,6.63-5.56,8.73-9.33,.94-1.71,2.56-3.98,4.25-3.38,.55,.19,.9,.67,1.2,1.11,.34,.51,.71,1.02,1.06,1.53,7.85,11.22,16.23,21.58,28.2,29.02,11.49,7.12,24.39,12.17,36.72,18.07,.96,.46,1.9,.98,2.81,1.55,.26,.14,.5,.29,.74,.46,.29,.19,.58,.39,.86,.59,.34,.23,.66,.47,.99,.71,.36,.28,.73,.56,1.1,.85,1.12,.91,2.2,1.89,3.24,2.95,1,1.02,1.96,2.1,2.87,3.24,.34,.43,.68,.87,1.01,1.33l.08,.11c.33,.46,.66,.93,.98,1.4,.23,.33,.46,.69,.67,1.04,.23,.35,.44,.71,.66,1.09,.07,.11,.16,.24,.21,.36,.26,.45,.53,.92,.77,1.38,.07,.13,.15,.27,.21,.42,.13,.24,.26,.48,.37,.72,.11,.2,.21,.4,.29,.6,.14,.27,.25,.54,.37,.8,.25,.55,.49,1.12,.71,1.68,.18,.44,.35,.9,.5,1.36,.02,.03,.03,.08,.05,.14,.19,.51,.37,1.03,.53,1.55,.01,.04,.02,.06,.02,.09,.17,.57,.33,1.15,.49,1.73,.29,1.15,.53,2.32,.72,3.5,.1,.58,.18,1.15,.23,1.73,.03,.27,.06,.55,.07,.82,0,0,0,0,0,.02,.05,.37,.07,.76,.09,1.14,.03,.47,.04,.93,.04,1.4,0,.14,0,.26,0,.39,0,.55,0,1.09-.04,1.65-.03,.69-.08,1.37-.17,2.04-.05,.49-.11,.97-.19,1.44-.03,.15-.05,.29-.08,.44-.08,.51-.18,1.02-.3,1.51,0,.05,0,.09-.02,.14-.11,.45-.22,.9-.35,1.35-.06,.24-.13,.48-.21,.72-.05,.21-.12,.42-.19,.63-.6,1.81-1.36,3.6-2.33,5.33-.16,.3-.33,.58-.5,.87-.1,.17-.2,.34-.3,.51-.17,.28-.35,.55-.53,.82-.24,.37-.48,.72-.74,1.06-.25,.36-.52,.71-.79,1.06-.22,.3-.46,.59-.7,.87-.69,.85-1.45,1.66-2.27,2.47-.07,.07-.14,.12-.2,.19-.93,.92-1.9,1.75-2.88,2.52Z"/>
                <path class="cls-9" d="M473.9,363c.12-.04,.23-.08,.33-.13,4.48-2.13,8.15-6.74,10.25-10.91,.45-.89,.84-1.82,.83-2.72-.01-.9-.53-1.75-1.43-1.89-1.26-.19-2.55,.98-3.54,2.02-3.21,3.39-6.43,6.77-9.64,10.16-.27,.28-.54,.57-.69,.9-1.06,2.29,2.12,3.13,3.89,2.57Z"/>
                <path class="cls-9" d="M476.12,356.94c2.22-1.67,3.5-4.3,5.28-6.45,.33-.4,.69-.79,1.18-.98,.48-.19,1.12-.11,1.48,.32,.45,.53,.63,1.69,.43,2.31-1.22,3.7-3.87,6.55-6.91,8.83-1.15,.86-3.94,2.46-5.17,.42-1.33-2.21,2.48-3.53,3.72-4.46Z"/>
              </g>
            </g>
            <polygon class="cls-11" points="757.66 476.51 441 476.51 427.87 417.23 770.79 417.23 757.66 476.51"/>
            <polygon class="cls-1" points="580.51 476.51 567.87 476.51 567.34 417.23 581.04 417.23 580.51 476.51"/>
            <polygon class="cls-1" points="596.65 476.51 592.35 476.51 592.17 417.23 596.83 417.23 596.65 476.51"/>
            <g>
              <polygon class="cls-9" points="729.11 476.51 757.66 476.51 770.79 417.23 741.54 417.23 729.11 476.51"/>
              <polygon class="cls-1" points="470.83 417.23 427.87 417.23 441 476.51 481.56 476.51 470.83 417.23"/>
            </g>
            <polygon class="cls-4" points="757.66 476.51 441 476.51 427.87 417.23 770.79 417.23 757.66 476.51"/>
          </g>
          <g>
            <path class="cls-9" d="M1024.34,357.99c23.33-23.29,.26-104.39-14.06-146.92l-8.14,11.08s26.22,104.4,15.15,126.28c-11.05,21.85-89.71,47.68-89.97,47.76,45.56-9.99,83.05-24.24,97.03-38.2Z"/>
            <g>
              <g>
                <ellipse class="cls-1" cx="902.07" cy="121.18" rx="3.46" ry="4.49" transform="translate(670.7 1001.46) rotate(-82.92)"/>
                <path class="cls-9" d="M899.13,119.17c-.29-.04-.57-.04-.84-.03-.36,.43-.6,.93-.67,1.49-.2,1.64,1.12,3.2,3.08,3.79,.92-.4,1.58-1.13,1.69-2.03,.19-1.53-1.27-2.97-3.26-3.22Z"/>
                <ellipse class="cls-7" cx="902.07" cy="121.18" rx="3.46" ry="4.49" transform="translate(670.7 1001.46) rotate(-82.92)"/>
              </g>
              <path class="cls-11" d="M921.67,148.56s6.37,25.13,9.62,30.64c11.39,4.97,28.08-12.56,28.08-12.56,0,0-12.07-13.9-15.25-29.64-1.25-6.19-22.45,11.57-22.45,11.57Z"/>
              <path class="cls-9" d="M944.51,138.73l-4.86,5.28s2.47,16.72,12.99,18.94c.89-.67,1.66-1.38,2.37-2.09-3.56-5.17-8.33-13.28-10.5-22.13Z"/>
              <path class="cls-1" d="M929.72,151.12c-1.47-.66-5.83,.66-5.83,.66l-1.3,.34c1.47,5.57,4.42,16.36,6.83,22.84,1.74-.31,3.53-.93,5.35-1.95-6.64-3.27-3.59-21.23-5.06-21.89Z"/>
              <path class="cls-5" d="M921.67,148.56s6.37,25.13,9.62,30.64c11.39,4.97,28.08-12.56,28.08-12.56,0,0-12.07-13.9-15.25-29.64-1.25-6.19-22.45,11.57-22.45,11.57Z"/>
              <path class="cls-11" d="M959.25,119.28c-.46-14.29-7.52-26.75-21.82-26.75-10.73,0-23.31,5.24-29.87,21.81-2.11,6.92-6.53,9.63-9.14,12.28-2.62,2.65,3.04,6.64,7.15,3.84-1.03,16.46,6.43,22.18,19.39,21.25,21.51-1.54,34.75-17.62,34.28-32.44Z"/>
              <g>
                <path class="cls-1" d="M907.78,130.01h-1.79s-.16,.19-.41,.47c-1,15.99,6.02,21.84,18.32,21.31-17.52-1.1-16.11-21.78-16.11-21.78Z"/>
                <path class="cls-1" d="M907.56,114.34c-2.11,6.92-6.53,9.63-9.14,12.28-1.5,1.52-.28,3.47,1.81,4.34-.36-5.56,5.81-4.13,8.53-13.27,2.72-9.15,9.17-16.66,9.17-16.66l-3.5,1.8c-2.65,3.02-5,6.8-6.86,11.51Z"/>
              </g>
              <path class="cls-5" d="M947.04,143.46c8.05-6.37,12.49-15.49,12.21-24.18-.46-14.29-7.52-26.75-21.82-26.75-10.73,0-23.31,5.24-29.87,21.81-2.11,6.92-6.53,9.63-9.14,12.28-2.62,2.65,3.04,6.64,7.15,3.84-1.03,16.46,6.43,22.18,19.39,21.25"/>
              <path class="cls-9" d="M913.62,108.86c1.76-.67,3.52-.46,5.03,.09,.76,.28,1.48,.67,2.12,1.17,.64,.5,1.23,1.13,1.61,1.94,.19,.4,.02,.88-.38,1.06-.36,.17-.79,.04-1-.28l-.03-.05c-.59-.89-1.78-1.52-2.95-1.77-1.17-.27-2.42-.17-3.27,.33-.65,.38-1.49,.16-1.87-.5-.38-.65-.16-1.49,.5-1.87,.06-.04,.13-.07,.19-.09l.06-.02Z"/>
              <path class="cls-9" d="M903.48,112.99c-.65-.38-1.61-.46-2.51-.25-.9,.2-1.81,.68-2.26,1.36l-.03,.04c-.19,.28-.57,.36-.85,.17-.26-.17-.34-.5-.22-.77,.29-.62,.75-1.1,1.24-1.49,.5-.39,1.05-.68,1.63-.9,1.16-.42,2.52-.58,3.87-.07l.04,.02c.54,.21,.82,.82,.61,1.36-.21,.54-.82,.82-1.36,.61-.05-.02-.11-.05-.15-.07Z"/>
              <g>
                <ellipse class="cls-1" cx="915.11" cy="121.18" rx="3.46" ry="4.49" transform="translate(682.13 1014.39) rotate(-82.92)"/>
                <path class="cls-9" d="M912.17,119.17c-.29-.04-.57-.04-.84-.03-.36,.43-.6,.93-.67,1.49-.2,1.64,1.12,3.2,3.08,3.79,.92-.4,1.58-1.13,1.69-2.03,.19-1.53-1.27-2.97-3.26-3.22Z"/>
                <ellipse class="cls-7" cx="915.11" cy="121.18" rx="3.46" ry="4.49" transform="translate(682.13 1014.39) rotate(-82.92)"/>
              </g>
              <g>
                <path class="cls-1" d="M910.8,136.57s6.98,1.73,14.09-2.92c-3.55,12.29-15.59,11.47-14.09,2.92Z"/>
                <path class="cls-7" d="M910.8,136.57s6.98,1.73,14.09-2.92c-3.55,12.29-15.59,11.47-14.09,2.92Z"/>
              </g>
              <path class="cls-9" d="M922.97,105.18c20.78,2.53,9.76,24.04,13.01,26.57,3.25,2.53,2.17-10.47,8.13-10.56,5.96-.1,4.88,14.18,0,15.81-6.03,2.01-4.93,11.22,3.98,10.3,8.03-.83,17.32-19.64,17.27-29.76-.12-27.12-18.03-33.62-31.39-33.61-18.25-.48-27.33,19.27-11,21.26Z"/>
              <path class="cls-1" d="M923.89,99.67c-6.53-6.46-1.1-11.94,3.47-14.99-13.57,3.6-18.59,18.77-4.38,20.5,10.76,1.31,13,7.71,13.1,13.93,.65-11.39-7.38-14.69-12.18-19.44Z"/>
              <path class="cls-5" d="M922.97,105.18c20.78,2.53,9.76,24.04,13.01,26.57,3.25,2.53,2.17-10.47,8.13-10.56,5.96-.1,4.88,14.18,0,15.81-6.03,2.01-4.93,11.22,3.98,10.3,8.03-.83,17.32-19.64,17.27-29.76-.12-27.12-18.03-33.62-31.39-33.61-18.25-.48-27.33,19.27-11,21.26Z"/>
            </g>
            <g>
              <path class="cls-1" d="M1013.35,216.23s-2.35-41.2,48.77-27.92c51.12,13.28,153.21,94.13,106.73,162.72-46.48,68.58-122.45,10.14-122.45,10.14l-33.05-144.94Z"/>
              <path class="cls-11" d="M1168.84,351.02c4.61-6.8,7.73-13.72,9.61-20.68-8.43,17.28-39.4,23.47-48.76,1.33-11.23-26.55-47.37-78.73-71.72-97.85-44.65-35.06-12.99-46.36-12.23-48.12-34.2-1.27-32.4,30.51-32.4,30.51l33.05,144.94s75.97,58.44,122.45-10.14Z"/>
              <path class="cls-5" d="M1013.35,216.23s-2.35-41.2,48.77-27.92c51.12,13.28,153.21,94.13,106.73,162.72-46.48,68.58-122.45,10.14-122.45,10.14l-33.05-144.94Z"/>
              <g class="cls-10">
                <path d="M1180.47,318.73c.06-.8,.1-1.6,.13-2.39-.2,.47-.24,1.27-.13,2.39Z"/>
              </g>
              <path class="cls-1" d="M927.38,170.01s-14.6,37.83-12.55,80.38c1.69,34.95-18.16,91.44-26.86,137.31-8.49,44.79-25.78,96.76-1.61,147.91,55.52,22.97,191.93,43.66,235.27-12.08,9.25-30.99,7.81-100.82,3.71-132.12-19.19-146.43-170.82-231.51-170.82-231.51,0,0-2.08,6.44-13.26,10.33-10.64,3.7-13.87-.21-13.87-.21Z"/>
              <path class="cls-11" d="M886.36,402.26c53.8,27.63,164.55-9.45,233.8-37.95-7.6-30.22-20.64-57.45-36.17-81.44-100.67,39.61-154.47,50.18-183.21,50.34-4.68,18.53-9.53,37.27-12.79,54.5-.92,4.86-1.44,9.72-1.61,14.55Z"/>
              <path class="cls-9" d="M1125.33,391.41c-1.17-8.93-2.84-17.63-4.93-26.1-.17-.64-.35-1.28-.52-1.92-3.06-10.93-6.78-21.68-11.17-32.15-2-4.76-12.96-20-11.09-25.12-.42,1.16-2.88-4.06-5.87-10.15,.1,.03,.2,.05,.3,.08-.51-.88-1.04-1.73-1.55-2.6-.08-.15-.15-.31-.23-.46-4.3-7.23-8.85-14.2-13.56-20.88-1.32-1.78-2.78-3.78-4.43-6.11-23.66-32-50.95-57.28-73.3-75.12,0,0,32.15,42,32.15,42,5.77,7.53,13.71,13.27,19.29,20.93,13.14,18.04,21.62,38.84,30.75,59.05,5.89,13.04,15.65,23.91,21.88,36.79,14.53,30.04,13.25,65.09,12.66,97.62-.48,26.05-.52,60.52-3.91,86.36,2.98-2.44,4.38-3.82,6.88-6.62,6.82-6.99,7.26-36.48,7.76-39.42,3.54-31.7,2.02-72.34-1.11-96.19Z"/>
              <path class="cls-5" d="M927.38,170.01s-14.6,37.83-12.55,80.38c1.69,34.95-18.16,91.44-26.86,137.31-8.49,44.79-25.78,96.76-1.61,147.91,55.52,22.97,191.93,43.66,235.27-12.08,9.25-30.99,7.81-100.82,3.71-132.12-19.19-146.43-170.82-231.51-170.82-231.51,0,0-2.08,6.44-13.26,10.33-10.64,3.7-13.87-.21-13.87-.21Z"/>
              <g>
                <path class="cls-11" d="M1102.59,315.99s-127.92-1.38-159.92-71.21c-24.76-54.04,16.7-78.15,16.7-78.15,0,0-62.29,39.54-29.17,107.56,33.13,68.02,183.73,69.33,183.73,69.33,0,0-4.13-11.53-5.78-15.53-1.19-2.89-5.57-12-5.57-12Z"/>
                <g>
                  <path class="cls-1" d="M938.4,277.7c-13.56-27.84-11.13-50.9-3.53-68.45,1.02-20.43,12.59-33.13,19.47-38.92-14.12,11.29-51.36,47.95-24.13,103.85,10.45,21.45,32.58,36.26,57.99,46.49-21.91-10.03-40.49-23.87-49.8-42.98Z"/>
                  <path class="cls-1" d="M954.33,170.33c3.06-2.44,5.04-3.7,5.04-3.7,0,0-2.09,1.22-5.04,3.7Z"/>
                </g>
                <path class="cls-5" d="M1102.59,315.99s-127.92-1.38-159.92-71.21c-24.76-54.04,16.7-78.15,16.7-78.15,0,0-62.29,39.54-29.17,107.56,33.13,68.02,183.73,69.33,183.73,69.33,0,0-4.13-11.53-5.78-15.53-1.19-2.89-5.57-12-5.57-12Z"/>
              </g>
              <g>
                <path class="cls-11" d="M1077.71,401.25c32.08-32.03-66.11-195.76-66.11-195.76l-73.45,26.11s22.16,96.13,15.14,104.21l124.42,65.44Z"/>
                <path class="cls-11" d="M1077.71,401.25c32.08-32.03-66.11-195.76-66.11-195.76l-73.45,26.11s22.16,96.13,15.14,104.21l124.42,65.44Z"/>
                <path class="cls-1" d="M964.43,341.67c10.33-19.26-7.58-84.91-7.58-84.91l-6.27-29.58-12.44,4.42s22.16,96.13,15.14,104.21l11.15,5.86Z"/>
                <path class="cls-9" d="M1065.3,389.8c-.23,1.33-.74,2.7-1.52,4.12l13.93,7.33c32.08-32.03-66.11-195.76-66.11-195.76l-10.8,3.84c24.55,54.39,68.63,156.6,64.5,180.47Z"/>
                <path class="cls-5" d="M1077.71,401.25c32.08-32.03-66.11-195.76-66.11-195.76l-73.45,26.11s22.16,96.13,15.14,104.21"/>
                <path class="cls-11" d="M953.78,336.03c-7.78,8.94-136.76,72.27-214.39,100.86v43.82c144.59,13.7,297.73-38.93,338.32-79.45l-123.93-65.22Z"/>
                <path class="cls-1" d="M739.39,447.37c39.47-19.85,210.81-88.64,223.52-103.43,.57-.66,1.08-1.43,1.53-2.29l-10.67-5.61c-7.78,8.94-136.76,72.27-214.39,100.86v10.48Z"/>
                <path class="cls-9" d="M1077.71,401.25l-13.94-7.33c-18.25,33.13-183.49,88.72-324.38,76.95v9.83c144.59,13.7,297.73-38.93,338.32-79.45Z"/>
                <path class="cls-5" d="M953.78,336.03c-7.78,8.94-136.76,72.27-214.39,100.86v43.82c144.59,13.7,297.73-38.93,338.32-79.45"/>
              </g>
            </g>
            <g>
              <path class="cls-11" d="M942.67,265.1s66.92-31.22,93.34-19.75c-20.67-56.33-50.38-87.48-76.64-78.73-26.68,8.89-32.51,46.21-16.7,98.48Z"/>
              <path class="cls-9" d="M1036.02,245.36c-12.57-34.26-28.48-59.17-44.93-71.49,1.63,1.47,14.19,13.25,8.49,23.44-6.1,10.89,1.58,14.68,13.77,18.93,10.56,3.68,.99,4.19,3,26.77,7.59-.51,14.43,.08,19.67,2.36Z"/>
              <path class="cls-1" d="M952.01,170.14c-20.26,12.99-23.57,47.91-9.34,94.96,0,0,5.89-2.75,14.86-6.31h0s-20.72-59.19-5.52-88.65Z"/>
              <path class="cls-5" d="M942.67,265.1s66.92-31.22,93.34-19.75c-20.67-56.33-50.38-87.48-76.64-78.73-26.68,8.89-32.51,46.21-16.7,98.48Z"/>
            </g>
            <path class="cls-8" d="M934.72,142.95s-.14,9.27-13.05,11.02"/>
            <circle class="cls-11" cx="940.53" cy="135.67" r="4.3"/>
          </g>
          <g>
            <g>
              <g>
                <path class="cls-11" d="M663.03,417.51h35.59c4.2,0,7.62,3.41,7.62,7.62h0c0,4.2-3.41,7.62-7.62,7.62h-35.59v-15.23h0Z" transform="translate(1298.78 946.95) rotate(-171.48)"/>
                <path class="cls-11" d="M659.28,432.34h36.37c4.39,0,7.95,3.56,7.95,7.95v.29c0,4.39-3.56,7.95-7.95,7.95h-36.37v-16.19h0Z" transform="translate(1290.15 976.93) rotate(-171.48)"/>
                <path class="cls-11" d="M660.9,448.46h36.37c4.39,0,7.95,3.56,7.95,7.95v.29c0,4.39-3.56,7.95-7.95,7.95h-36.37v-16.19h0Z" transform="translate(1290.98 1009.22) rotate(-171.48)"/>
                <path class="cls-11" d="M665.22,464.76h36.37c4.39,0,7.95,3.56,7.95,7.95v.29c0,4.39-3.56,7.95-7.95,7.95h-36.37v-16.19h0Z" transform="translate(1297.16 1042.28) rotate(-171.48)"/>
                <path class="cls-11" d="M718.37,425.13s-14.76-7.2-14.43-11.21c.33-4.02-.6-18,47.69,10.83-24.1,6.52-33.27,.38-33.27,.38Z"/>
                <path class="cls-1" d="M719.19,420.86c-11.67-4.23-10.88-11.39-10.88-11.39l-2.19-1.27c-2.1,1.57-2.06,4.28-2.17,5.71-.27,3.31,9.69,8.77,13.21,10.6,.68-1.13,1.36-2.35,2.04-3.65Z"/>
                <path class="cls-5" d="M718.37,425.13s-14.76-7.2-14.43-11.21c.33-4.02-.6-18,47.69,10.83-24.1,6.52-33.27,.38-33.27,.38Z"/>
                <path class="cls-11" d="M772.2,468.31c-11.79,20.22-64.78,15.73-64.78,15.73,0,0-10.35-37.56-3.45-57.2,.71-2.04,1.61-3.89,2.73-5.47,.13-.2,.27-.39,.42-.58,0,0,7.02,.08,14.28,.06,5.25,0,10.64-.06,13.57-.22,5.44-.3,11.22,1.27,16.65,4.11,16.28,8.51,29.41,28.41,20.57,43.56Z"/>
                <path class="cls-9" d="M770.05,471.26h0c-57.29,14.36-96.34,3.17-104.53,1.24,.65,3.18,3.21,5.76,6.61,6.27l35.3,5.28h0s.01,0,.02,0l.65,.1v-.05c5.83,.41,48.02,2.81,61.95-12.84Z"/>
                <path class="cls-1" d="M711.85,423.66c-.2-.78-.15-1.48,.07-2.08-2.54,.02-4.3-.07-4.3-.07l-.9-.13-34.3-5.14c-2.83-.42-5.53,.78-7.16,2.89,.27,.19,.54,.39,.84,.59,10.02,4.54,25.11,6.48,37.89,7.13,2.18,.11,5.2,.16,8.78,.25-.36-1.15-.63-2.34-.91-3.43Z"/>
                <path class="cls-1" d="M753.2,427.13c-.4-.87-.93-1.67-1.57-2.39-5.43-2.84-11.21-4.41-16.65-4.11-.08,0-.17,0-.25,.01,.82,2.04,1.24,4.27,1.34,6.34,.02,.54-.06,1.01-.21,1.42,11.34,1.21,22.92,3.58,30.6,8.4,1.62-3.77-13.26-9.67-13.26-9.67Z"/>
              </g>
              <path class="cls-1" d="M702.49,438.3s-27.73-3-42.46-3.05c1.33-3.34,4.81-5.46,8.52-4.92-.63-.19-1.22-.47-1.76-.8l36.47,5.77-.78,3.01Z"/>
              <path class="cls-1" d="M701.26,455.42s-24.77-2.68-39.93-3.02c.67-2.7,2.66-4.77,5.17-5.61l35.53,5.62-.78,3.01Z"/>
              <path class="cls-1" d="M669.61,463.62l34.22,5.41-.78,3.01s-22.27-2.41-37.5-2.95c.47-2.42,2.01-4.38,4.05-5.47Z"/>
              <line class="cls-3" x1="667.74" y1="430.25" x2="701.7" y2="435.29"/>
              <line class="cls-3" x1="667.27" y1="446.54" x2="701.23" y2="451.57"/>
              <line class="cls-3" x1="669.98" y1="462.98" x2="703.94" y2="468.01"/>
            </g>
            <path class="cls-5" d="M768.5,472.82c-15.27,13.92-54.78,11.67-60.4,11.27v.05s-.65-.1-.65-.1c0,0-.02,0-.02,0h0s-35.3-5.29-35.3-5.29c-4.34-.65-7.34-4.7-6.69-9.04l.04-.28c.48-3.19,2.79-5.64,5.69-6.47l-3.37-.5c-4.34-.65-7.34-4.7-6.69-9.04l.04-.28c.51-3.39,3.08-5.94,6.25-6.6l-1.22-.18c-4.34-.65-7.34-4.7-6.69-9.04l.04-.28c.65-4.33,4.68-7.32,9.01-6.69-3.54-1.09-5.85-4.62-5.28-8.39,.62-4.16,4.5-7.03,8.66-6.4l35.2,5.27s0,0,0,0l4.58-.16"/>
            <path class="cls-5" d="M734.98,420.64c5.44-.3,11.22,1.27,16.65,4.11,3.01,1.57,5.91,3.54,8.59,5.79"/>
          </g>
          <g>
            <path class="cls-9" d="M199.88,357.99c-23.33-23.29-.26-104.39,14.06-146.92l8.14,11.08s-26.22,104.4-15.15,126.28c11.05,21.85,89.71,47.68,89.97,47.76-45.56-9.99-83.05-24.24-97.03-38.2Z"/>
            <g>
              <g>
                <ellipse class="cls-1" cx="322.15" cy="121.18" rx="4.49" ry="3.46" transform="translate(-12.47 40.6) rotate(-7.08)"/>
                <path class="cls-9" d="M325.09,119.17c.29-.04,.57-.04,.84-.03,.36,.43,.6,.93,.67,1.49,.2,1.64-1.12,3.2-3.08,3.79-.92-.4-1.58-1.13-1.69-2.03-.19-1.53,1.27-2.97,3.26-3.22Z"/>
                <ellipse class="cls-7" cx="322.15" cy="121.18" rx="4.49" ry="3.46" transform="translate(-12.47 40.6) rotate(-7.08)"/>
              </g>
              <path class="cls-11" d="M302.55,148.56s-6.37,25.13-9.62,30.64c-11.39,4.97-28.08-12.56-28.08-12.56,0,0,12.07-13.9,15.25-29.64,1.25-6.19,22.45,11.57,22.45,11.57Z"/>
              <path class="cls-9" d="M279.71,138.73l4.86,5.28s-2.47,16.72-12.99,18.94c-.89-.67-1.66-1.38-2.37-2.09,3.56-5.17,8.33-13.28,10.5-22.13Z"/>
              <path class="cls-1" d="M294.5,151.12c1.47-.66,5.83,.66,5.83,.66l1.3,.34c-1.47,5.57-4.42,16.36-6.83,22.84-1.74-.31-3.53-.93-5.35-1.95,6.64-3.27,3.59-21.23,5.06-21.89Z"/>
              <path class="cls-5" d="M302.55,148.56s-6.37,25.13-9.62,30.64c-11.39,4.97-28.08-12.56-28.08-12.56,0,0,12.07-13.9,15.25-29.64,1.25-6.19,22.45,11.57,22.45,11.57Z"/>
              <path class="cls-11" d="M264.97,119.28c.46-14.29,7.52-26.75,21.82-26.75,10.73,0,23.31,5.24,29.87,21.81,2.11,6.92,6.53,9.63,9.14,12.28,2.62,2.65-3.04,6.64-7.15,3.84,1.03,16.46-6.43,22.18-19.39,21.25-21.51-1.54-34.75-17.62-34.28-32.44Z"/>
              <g>
                <path class="cls-1" d="M316.44,130.01h1.79s.16,.19,.41,.47c1,15.99-6.02,21.84-18.32,21.31,17.52-1.1,16.11-21.78,16.11-21.78Z"/>
                <path class="cls-1" d="M316.66,114.34c2.11,6.92,6.53,9.63,9.14,12.28,1.5,1.52,.28,3.47-1.81,4.34,.36-5.56-5.81-4.13-8.53-13.27-2.72-9.15-9.17-16.66-9.17-16.66l3.5,1.8c2.65,3.02,5,6.8,6.86,11.51Z"/>
              </g>
              <path class="cls-5" d="M277.19,143.46c-8.05-6.37-12.49-15.49-12.21-24.18,.46-14.29,7.52-26.75,21.82-26.75,10.73,0,23.31,5.24,29.87,21.81,2.11,6.92,6.53,9.63,9.14,12.28,2.62,2.65-3.04,6.64-7.15,3.84,1.03,16.46-6.43,22.18-19.39,21.25"/>
              <path class="cls-9" d="M309.48,111.35c-.85-.49-2.1-.59-3.27-.33-1.17,.26-2.35,.89-2.95,1.77l-.03,.05c-.24,.37-.74,.47-1.11,.22-.33-.22-.45-.65-.28-1,.38-.81,.97-1.44,1.61-1.94,.65-.5,1.36-.89,2.12-1.17,1.51-.55,3.27-.76,5.03-.09l.05,.02c.71,.27,1.06,1.06,.79,1.77-.27,.71-1.06,1.06-1.77,.79-.07-.03-.14-.06-.2-.1Z"/>
              <path class="cls-9" d="M319.88,111.08c1.35-.51,2.71-.35,3.87,.07,.58,.22,1.13,.51,1.63,.9,.49,.39,.95,.87,1.24,1.49,.14,.31,.01,.67-.3,.82-.28,.13-.61,.03-.77-.22l-.03-.04c-.46-.68-1.37-1.17-2.26-1.36-.9-.21-1.86-.13-2.51,.25-.5,.29-1.15,.12-1.44-.38-.29-.5-.12-1.15,.38-1.44,.05-.03,.1-.05,.15-.07l.05-.02Z"/>
              <g>
                <ellipse class="cls-1" cx="309.12" cy="121.18" rx="4.49" ry="3.46" transform="translate(-12.57 39) rotate(-7.08)"/>
                <path class="cls-9" d="M312.06,119.17c.29-.04,.57-.04,.84-.03,.36,.43,.6,.93,.67,1.49,.2,1.64-1.12,3.2-3.08,3.79-.92-.4-1.58-1.13-1.69-2.03-.19-1.53,1.27-2.97,3.26-3.22Z"/>
                <ellipse class="cls-7" cx="309.12" cy="121.18" rx="4.49" ry="3.46" transform="translate(-12.57 39) rotate(-7.08)"/>
              </g>
              <g>
                <path class="cls-1" d="M313.43,136.57s-6.98,1.73-14.09-2.92c3.55,12.29,15.59,11.47,14.09,2.92Z"/>
                <path class="cls-7" d="M313.43,136.57s-6.98,1.73-14.09-2.92c3.55,12.29,15.59,11.47,14.09,2.92Z"/>
              </g>
            </g>
            <g>
              <path class="cls-11" d="M298.21,176.39c.17,.35,7.26,22.7,18.59,42.93,13.17,23.5,25.63,39.87,9.75,71.15-33.15,65.29-30.83,151.9-3.21,229.64-31.34,31.16-169.26,53.91-210.49,.87-13.1-47.66,19.41-180.92,31.31-208.5,65.7-152.27,128.24-145.72,128.24-145.72,0,0,1.97,6.13,12.61,9.83s13.2-.2,13.2-.2Z"/>
              <path class="cls-9" d="M146.17,377.64l-9.48-14.26c-.35-7.74-.75-15.64-1.54-23.48-14.01,49.69-32.82,142.89-22.31,181.09,10.73,13.8,27.99,21.52,48.22,24.86-14.55-3.35-22.29-20.9-25.64-39.97-6.42-36.63,2.59-91.95,10.75-128.23Z"/>
              <path class="cls-1" d="M308.35,340.02l-18.92-32.47c-1.7,6.57-31.09,164.58,19.99,222.89,5.74-3.43,10.46-6.91,13.9-10.33-20.81-58.6-27.28-128.22-14.98-180.09Z"/>
              <path class="cls-5" d="M298.21,176.39c.17,.35,7.26,22.7,18.59,42.93,13.17,23.5,25.63,39.87,9.75,71.15-33.15,65.29-30.83,151.9-3.21,229.64-31.34,31.16-169.26,53.91-210.49,.87-13.1-47.66,19.41-180.92,31.31-208.5,65.7-152.27,128.24-145.72,128.24-145.72,0,0,1.97,6.13,12.61,9.83s13.2-.2,13.2-.2Z"/>
              <path class="cls-11" d="M296.84,170.01s-3.23,3.91-13.87,.21c-11.18-3.89-13.26-10.33-13.26-10.33,0,0-65.74-6.89-134.79,153.16-6.75,15.64-18.79,56.05-26.28,97.82,12.22,5.93,29.67,9.67,54.29,9.72,85.74,.16,110.04-14.04,138.11-14.61-.99-40.66,7.01-79.48,25.59-116.08,16.69-32.88,3.59-50.08-10.25-74.79-11.91-21.26-19.36-44.76-19.54-45.12Z"/>
              <path class="cls-1" d="M316.38,215.14c-11.91-21.26-19.36-44.76-19.54-45.12,0,0-1.73,2.09-6.83,1.77l-.58,1.24s.23,18.05,17.01,41.31c16.77,23.25,26.99,47.06-8.5,125.83-14.65,32.51-12.62,54.01-4.44,66.31,2.51-.25,5.01-.41,7.54-.46-.99-40.66,7.01-79.48,25.59-116.08,16.69-32.88,3.59-50.08-10.25-74.79Z"/>
              <path class="cls-5" d="M263.71,174.41c.58,2.16,19.72,29.22,37.92,24.24"/>
              <path class="cls-1" d="M159.89,261.71c-8.2,14.85-16.56,31.86-24.97,51.35-3.58,8.29-8.65,23.56-13.73,42.3,49.1,28.44,129.19,.23,182.57-4.17,7.44-21.9,7.16-28.28,19.99-55.36-65.56,4.44-125.71-16.19-163.85-34.11Z"/>
              <path class="cls-5" d="M316.32,313.24s-28.31,9.31-128.12-18.46"/>
              <path class="cls-5" d="M296.84,170.01s-3.23,3.91-13.87,.21c-11.18-3.89-13.26-10.33-13.26-10.33,0,0-65.74-6.89-134.79,153.16-6.75,15.64-18.79,56.05-26.28,97.82,12.22,5.93,29.67,9.67,54.29,9.72,85.74,.16,110.04-14.04,138.11-14.61-.99-40.66,7.01-79.48,25.59-116.08,16.69-32.88,3.59-50.08-10.25-74.79-11.91-21.26-19.36-44.76-19.54-45.12Z"/>
              <path class="cls-1" d="M269.89,170.33c-3.06-2.44-5.04-3.7-5.04-3.7,0,0,2.09,1.22,5.04,3.7Z"/>
              <g>
                <path class="cls-11" d="M146.52,401.25c-32.08-32.03,66.11-195.76,66.11-195.76l73.45,26.11s-22.16,96.13-15.14,104.21l-124.42,65.44Z"/>
                <path class="cls-11" d="M146.52,401.25c-32.08-32.03,66.11-195.76,66.11-195.76l73.45,26.11s-22.16,96.13-15.14,104.21l-124.42,65.44Z"/>
                <path class="cls-1" d="M259.79,341.67c-10.33-19.26,7.58-84.91,7.58-84.91l6.27-29.58,12.44,4.42s-22.16,96.13-15.14,104.21l-11.15,5.86Z"/>
                <path class="cls-9" d="M158.93,389.8c.23,1.33,.74,2.7,1.52,4.12l-13.93,7.33c-32.08-32.03,66.11-195.76,66.11-195.76l10.8,3.84c-24.55,54.39-68.63,156.6-64.5,180.47Z"/>
                <path class="cls-5" d="M146.52,401.25c-32.08-32.03,66.11-195.76,66.11-195.76l73.45,26.11s-22.16,96.13-15.14,104.21"/>
                <path class="cls-11" d="M270.44,336.03c7.78,8.94,136.76,72.27,214.39,100.86v43.82c-144.59,13.7-297.73-38.93-338.32-79.45l123.93-65.22Z"/>
                <path class="cls-1" d="M484.83,447.37c-39.47-19.85-210.81-88.64-223.52-103.43-.57-.66-1.08-1.43-1.53-2.29l10.67-5.61c7.78,8.94,136.76,72.27,214.39,100.86v10.48Z"/>
                <path class="cls-9" d="M146.52,401.25l13.94-7.33c18.25,33.13,183.49,88.72,324.38,76.95v9.83c-144.59,13.7-297.73-38.93-338.32-79.45Z"/>
                <path class="cls-5" d="M270.44,336.03c7.78,8.94,136.76,72.27,214.39,100.86v43.82c-144.59,13.7-297.73-38.93-338.32-79.45"/>
              </g>
            </g>
            <g>
              <path class="cls-11" d="M281.55,265.1s-66.92-31.22-93.34-19.75c20.67-56.33,50.38-87.48,76.64-78.73,26.68,8.89,32.51,46.21,16.7,98.48Z"/>
              <path class="cls-9" d="M188.21,245.36c12.57-34.26,28.48-59.17,44.93-71.49-1.63,1.47-14.19,13.25-8.49,23.44,6.1,10.89-1.58,14.68-13.77,18.93-10.56,3.68-.99,4.19-3,26.77-7.59-.51-14.43,.08-19.67,2.36Z"/>
              <path class="cls-1" d="M272.21,170.14c20.26,12.99,23.57,47.91,9.34,94.96,0,0-5.89-2.75-14.86-6.31h0s20.72-59.19,5.52-88.65Z"/>
              <path class="cls-5" d="M281.55,265.1s-66.92-31.22-93.34-19.75c20.67-56.33,50.38-87.48,76.64-78.73,26.68,8.89,32.51,46.21,16.7,98.48Z"/>
            </g>
            <path class="cls-8" d="M289.5,142.95s.14,9.27,13.05,11.02"/>
            <circle class="cls-11" cx="283.7" cy="135.67" r="4.3"/>
          </g>
          <g>
            <g>
              <g>
                <path class="cls-11" d="M517.98,417.51h35.59c4.2,0,7.62,3.41,7.62,7.62h0c0,4.2-3.41,7.62-7.62,7.62h-35.59v-15.23h0Z" transform="translate(-57 84.59) rotate(-8.52)"/>
                <path class="cls-11" d="M520.62,432.34h36.37c4.39,0,7.95,3.56,7.95,7.95v.29c0,4.39-3.56,7.95-7.95,7.95h-36.37v-16.19h0Z" transform="translate(-59.23 85.23) rotate(-8.52)"/>
                <path class="cls-11" d="M519,448.46h36.37c4.39,0,7.95,3.56,7.95,7.95v.29c0,4.39-3.56,7.95-7.95,7.95h-36.37v-16.19h0Z" transform="translate(-61.64 85.17) rotate(-8.52)"/>
                <path class="cls-11" d="M514.68,464.76h36.37c4.39,0,7.95,3.56,7.95,7.95v.29c0,4.39-3.56,7.95-7.95,7.95h-36.37v-16.19h0Z" transform="translate(-64.1 84.71) rotate(-8.52)"/>
                <path class="cls-11" d="M505.86,425.13s14.76-7.2,14.43-11.21c-.33-4.02,.6-18-47.69,10.83,24.1,6.52,33.27,.38,33.27,.38Z"/>
                <path class="cls-1" d="M505.04,420.86c11.67-4.23,10.88-11.39,10.88-11.39l2.19-1.27c2.1,1.57,2.06,4.28,2.17,5.71,.27,3.31-9.69,8.77-13.21,10.6-.68-1.13-1.36-2.35-2.04-3.65Z"/>
                <path class="cls-5" d="M505.86,425.13s14.76-7.2,14.43-11.21c-.33-4.02,.6-18-47.69,10.83,24.1,6.52,33.27,.38,33.27,.38Z"/>
                <path class="cls-11" d="M452.02,468.31c11.79,20.22,64.78,15.73,64.78,15.73,0,0,10.35-37.56,3.45-57.2-.71-2.04-1.61-3.89-2.73-5.47-.13-.2-.27-.39-.42-.58,0,0-7.02,.08-14.28,.06-5.25,0-10.64-.06-13.57-.22-5.44-.3-11.22,1.27-16.65,4.11-16.28,8.51-29.41,28.41-20.57,43.56Z"/>
                <path class="cls-9" d="M454.17,471.26h0c57.29,14.36,96.34,3.17,104.53,1.24-.65,3.18-3.21,5.76-6.61,6.27l-35.3,5.28h0s-.01,0-.02,0l-.65,.1v-.05c-5.83,.41-48.02,2.81-61.95-12.84Z"/>
                <path class="cls-1" d="M512.38,423.66c.2-.78,.15-1.48-.07-2.08,2.54,.02,4.3-.07,4.3-.07l.9-.13,34.3-5.14c2.83-.42,5.53,.78,7.16,2.89-.27,.19-.54,.39-.84,.59-10.02,4.54-25.11,6.48-37.89,7.13-2.18,.11-5.2,.16-8.78,.25,.36-1.15,.63-2.34,.91-3.43Z"/>
                <path class="cls-1" d="M471.02,427.13c.4-.87,.93-1.67,1.57-2.39,5.43-2.84,11.21-4.41,16.65-4.11,.08,0,.17,0,.25,.01-.82,2.04-1.24,4.27-1.34,6.34-.02,.54,.06,1.01,.21,1.42-11.34,1.21-22.92,3.58-30.6,8.4-1.62-3.77,13.26-9.67,13.26-9.67Z"/>
              </g>
              <path class="cls-1" d="M521.73,438.3s27.73-3,42.46-3.05c-1.33-3.34-4.81-5.46-8.52-4.92,.63-.19,1.22-.47,1.76-.8l-36.47,5.77,.78,3.01Z"/>
              <path class="cls-1" d="M522.96,455.42s24.77-2.68,39.93-3.02c-.67-2.7-2.66-4.77-5.17-5.61l-35.53,5.62,.78,3.01Z"/>
              <path class="cls-1" d="M554.61,463.62l-34.22,5.41,.78,3.01s22.27-2.41,37.5-2.95c-.47-2.42-2.01-4.38-4.05-5.47Z"/>
              <line class="cls-3" x1="556.48" y1="430.25" x2="522.52" y2="435.29"/>
              <line class="cls-3" x1="556.95" y1="446.54" x2="523" y2="451.57"/>
              <line class="cls-3" x1="554.24" y1="462.98" x2="520.28" y2="468.01"/>
            </g>
            <path class="cls-5" d="M455.72,472.82c15.27,13.92,54.78,11.67,60.4,11.27v.05s.65-.1,.65-.1c0,0,.02,0,.02,0h0s35.3-5.29,35.3-5.29c4.34-.65,7.34-4.7,6.69-9.04l-.04-.28c-.48-3.19-2.79-5.64-5.69-6.47l3.37-.5c4.34-.65,7.34-4.7,6.69-9.04l-.04-.28c-.51-3.39-3.08-5.94-6.25-6.6l1.22-.18c4.34-.65,7.34-4.7,6.69-9.04l-.04-.28c-.65-4.33-4.68-7.32-9.01-6.69,3.54-1.09,5.85-4.62,5.28-8.39-.62-4.16-4.5-7.03-8.66-6.4l-35.2,5.27s0,0,0,0l-4.58-.16"/>
            <path class="cls-5" d="M489.24,420.64c-5.44-.3-11.22,1.27-16.65,4.11-3.01,1.57-5.91,3.54-8.59,5.79"/>
          </g>
          <path class="cls-6" d="M275.15,128.86c.06,1.62,.92,3.18,2.25,4.1,1.33,.92,3.1,1.17,4.63,.65"/>
          <path class="cls-6" d="M278.45,126.83c.46-.2,1.03-.15,1.45,.12s.69,.77,.69,1.28"/>
          <path class="cls-9" d="M302.55,103.23c-27.75,4.75-13.82,26.55-20.15,21.18-6.33-5.36-15.45-3.88-8.98,6.95,6.47,10.83,13.15,32.02-6.05,36.98-21.37,5.52-22.41-35.04-45.78-12.26-23.37,22.79-55.29-19.22-33.38-31.67,21.09-11.98-12.76-26.31-2.33-41.76,8.54-12.66,26.75-3.73,37.55-14.87,5.52-5.7-3.72-28.84,22.9-31.02,15.51-1.27,13.49,18.78,28.82,17.72,9.19-.63,17.38-12.03,33.97-6.96,20.65,6.3,21.19,50.95-6.56,55.7Z"/>
          <g>
            <path class="cls-1" d="M283.88,125.25c-2.37-2.15-6.01-5.01-10.42-5.22-4.86-.22-9.8,3.03-12.28,8.1-2.3,4.7-2.35,9.99-2.13,14.08v.25c.08,1.14,.14,2.23-.13,3.13-.68,2.3-3.5,3.53-4.68,3.95-.94,.33-1.92,.59-2.96,.86-1.61,.42-3.28,.86-4.89,1.63-1.04,.5-2,1.14-2.88,1.87,.82,.83,1.62,1.73,2.42,2.65,.62-.5,1.29-.93,2.01-1.28,1.3-.62,2.73-1,4.25-1.4,1.06-.28,2.16-.57,3.24-.95,3.65-1.3,6.11-3.54,6.93-6.33,.44-1.5,.36-3.01,.28-4.34v-.25c-.21-3.65-.18-8.35,1.75-12.3,1.49-3.04,4.18-5.27,6.96-5.91,1.07-3.52,6.69-3.06,11.02,.61,.74,.62,1.2,.88,1.48,.83Z"/>
            <path class="cls-1" d="M310.11,100.28c-1.51-1.29-2.86-2.77-4.29-4.33-2.13-2.33-4.34-4.75-7.15-6.52-7.75-4.89-18.85-3.16-24.74,3.86-.36,.43-.7,.87-1.04,1.32-.7,.91-1.35,1.77-2.13,2.39-1.41,1.13-3.37,1.58-4.91,1.84-2.34,.4-4.8,.55-7.19,.7-3.58,.22-7.28,.45-10.87,1.5-6.38,1.87-12.71,7.64-11.89,14.65,.22,1.87,.92,3.58,1.59,5.23,.83,2.04,1.62,3.97,1.25,5.75-.51,2.45-2.98,4.04-5.59,5.73-1.04,.67-2.11,1.36-3.09,2.13-4.51,3.53-7.19,9.28-7,15.01,.05,1.53,.31,3.05,.75,4.51,1.09-.93,2.12-1.71,3.11-2.36-.15-.75-.24-1.51-.27-2.28-.16-4.6,1.99-9.21,5.62-12.05,.85-.67,1.81-1.28,2.83-1.94,2.98-1.92,6.36-4.1,7.17-8.03,.59-2.86-.45-5.39-1.45-7.84-.61-1.49-1.19-2.91-1.35-4.29-.57-4.87,4.29-9.3,9.32-10.78,3.2-.94,6.54-1.14,10.08-1.36,2.48-.15,5.04-.31,7.57-.74,1.97-.34,4.5-.94,6.55-2.58,1.12-.9,1.95-1.97,2.74-3.01,.31-.4,.61-.8,.94-1.19,4.7-5.59,13.89-7.02,20.07-3.13,2.4,1.52,4.35,3.65,6.41,5.91,1.15,1.26,2.34,2.55,3.63,3.75,1.27-.45,2.47-1,3.59-1.63-.09-.07-.18-.14-.27-.22Z"/>
            <path class="cls-1" d="M205.77,154.2c.24-3.99,2.24-7.72,4.35-11.66,2.62-4.89,5.32-9.95,4.52-15.7-.44-3.17-1.92-6.05-3.34-8.83-1.82-3.55-3.54-6.9-2.7-10.22,1.08-4.31,5.75-6.32,10.69-8.45,5.25-2.26,10.67-4.61,12.78-10.01,.76-1.96,.91-3.97,1.04-5.91,.04-.62,.09-1.24,.15-1.86,.74-6.87,5.72-14.36,12.78-15.01,4.56-.42,9.06,1.95,13.41,4.24,.77,.4,1.53,.8,2.29,1.19,7.66,3.89,14.15,4.31,18.77,1.21,1.83-1.22,3.15-2.87,4.43-4.46,.52-.65,1.02-1.26,1.54-1.84,2.63-2.91,6.88-4.76,10.59-4.59,1.66,.08,3.98,.61,5.55,2.72,1.73,2.32,1.86,5.47,1.99,8.81,.12,3.06,.24,6.22,1.58,9.12,2.46,5.32,7.51,7.49,12.94,9.05,.65-1.04,1.23-2.13,1.75-3.25-5.04-1.39-9.48-3.12-11.42-7.31-1.04-2.25-1.14-4.93-1.25-7.75-.15-3.74-.3-7.62-2.7-10.83-1.91-2.56-4.77-3.99-8.27-4.15-4.79-.21-10.07,2.05-13.43,5.77-.59,.65-1.14,1.34-1.67,2-1.16,1.44-2.26,2.8-3.64,3.72-4.39,2.94-10.66,.85-15.14-1.43-.74-.38-1.49-.77-2.24-1.17-4.81-2.54-9.79-5.16-15.41-4.64-9.23,.85-15.15,10.02-16.03,18.21-.07,.66-.12,1.32-.17,1.98-.12,1.75-.24,3.41-.81,4.86-1.56,4-6.07,5.95-10.85,8.01-5.53,2.38-11.24,4.85-12.75,10.88-1.16,4.64,.95,8.76,2.99,12.74,1.35,2.63,2.62,5.12,2.98,7.69,.64,4.59-1.68,8.92-4.13,13.5-2.2,4.11-4.47,8.36-4.77,13.14-.18,2.95,.51,5.95,1.87,8.6,1.39,.18,2.81,.21,4.24,.08-1.74-2.45-2.69-5.48-2.51-8.46Z"/>
          </g>
        </g>
        <g>
          <rect class="cls-11" x="95.59" y="514.91" width="1082.66" height="44.26"/>
          <rect class="cls-1" x="95.59" y="514.91" width="55.78" height="44.26"/>
          <rect class="cls-9" x="1122.46" y="514.91" width="55.78" height="44.26"/>
          <rect class="cls-1" x="647.04" y="514.91" width="38.64" height="44.26"/>
          <rect class="cls-1" x="584.69" y="514.91" width="14.64" height="44.26"/>
          <rect class="cls-5" x="95.59" y="514.91" width="1082.66" height="44.26"/>
        </g>
      </g>
    </g>
  </g>
</svg>